<?xml version="1.0" standalone="no"?>
<!DOCTYPE svg PUBLIC "-//W3C//DTD SVG 20010904//EN"
 "http://www.w3.org/TR/2001/REC-SVG-20010904/DTD/svg10.dtd">
<svg version="1.0" xmlns="http://www.w3.org/2000/svg"
 width="1024.000000pt" height="1024.000000pt" viewBox="0 0 1024.000000 1024.000000"
 preserveAspectRatio="xMidYMid meet">

<g transform="translate(0.000000,1024.000000) scale(0.100000,-0.100000)"
fill="#000000" stroke="none">
<path d="M4075 8220 c-522 -33 -905 -327 -1070 -823 -50 -152 -68 -262 -62
-387 6 -123 23 -179 83 -271 97 -147 216 -212 584 -319 556 -161 643 -191 686
-243 23 -27 26 -38 22 -83 -6 -74 -42 -125 -112 -159 -54 -26 -54 -26 -313
-28 -244 -2 -260 -1 -293 19 -19 11 -46 36 -58 55 -21 30 -23 43 -19 107 l4
72 -446 -2 -446 -3 -24 -90 c-32 -124 -41 -336 -16 -421 25 -86 51 -131 114
-197 211 -222 442 -277 1101 -263 363 8 504 26 682 87 183 62 335 156 470 290
87 86 97 92 79 47 -6 -13 -31 -102 -56 -198 -25 -96 -49 -183 -51 -192 -5 -17
20 -18 434 -18 l439 0 33 123 c68 252 99 367 145 532 26 94 73 267 105 385
152 562 177 643 193 637 6 -2 14 -14 18 -28 4 -13 41 -127 82 -254 146 -447
317 -972 353 -1085 20 -63 51 -160 69 -215 l32 -100 424 -3 c233 -1 433 0 445
3 17 4 26 23 48 107 16 57 55 200 88 318 33 118 73 262 88 320 69 255 154 575
185 690 18 69 83 314 145 545 62 231 125 470 141 530 17 61 52 192 79 292 28
100 50 184 50 187 0 3 -202 6 -450 6 l-450 0 -6 -27 c-3 -16 -30 -116 -59
-223 -112 -405 -219 -793 -282 -1020 -36 -129 -75 -271 -88 -314 -12 -44 -24
-75 -27 -70 -3 5 -40 117 -82 249 -100 311 -243 755 -312 970 -30 94 -75 229
-100 301 l-45 131 -451 7 c-259 4 -455 3 -460 -2 -7 -7 -82 -276 -128 -457 -6
-27 -8 -28 -14 -10 -73 202 -157 298 -341 390 -100 50 -195 77 -330 94 -117
14 -663 22 -830 11z m506 -756 c64 -37 75 -78 53 -207 l-7 -38 417 3 c229 2
416 2 416 2 0 -2 -168 -631 -173 -648 -2 -5 -17 15 -34 45 -111 197 -277 284
-819 429 -380 101 -408 110 -447 136 -70 46 -82 122 -31 210 17 30 36 47 71
62 74 31 75 31 304 28 194 -2 219 -4 250 -22z"/>
<path d="M2335 4965 c-17 -27 -99 -264 -93 -270 2 -2 772 -7 1710 -11 1773 -6
1718 -7 1724 31 1 6 13 64 28 129 15 64 28 123 29 129 1 9 -400 12 -1692 12
-1692 1 -1693 1 -1706 -20z"/>
<path d="M1490 4305 c-208 -47 -353 -174 -395 -344 -32 -133 -2 -250 86 -324
40 -35 195 -106 309 -142 82 -26 150 -66 166 -97 48 -94 -27 -196 -162 -219
-59 -10 -77 -10 -127 5 -34 10 -73 30 -93 49 -30 27 -37 42 -42 87 l-7 55
-125 3 c-166 4 -170 2 -170 -51 0 -49 24 -157 42 -189 76 -136 228 -208 436
-208 218 0 411 93 507 244 57 88 70 132 69 226 -1 95 -30 167 -85 211 -47 37
-196 107 -304 143 -172 57 -231 114 -205 200 29 98 146 153 266 127 65 -15
104 -45 129 -100 l18 -41 91 0 c50 0 108 3 130 7 l39 6 -6 65 c-15 157 -106
257 -265 291 -69 14 -232 12 -302 -4z"/>
<path d="M4005 4308 c-3 -7 -11 -49 -19 -93 -20 -110 -35 -188 -111 -590 -37
-192 -78 -411 -91 -485 -14 -74 -28 -145 -31 -157 l-5 -23 140 0 139 0 21 103
c12 56 62 311 112 567 50 256 100 508 111 560 29 143 42 130 -121 130 -103 0
-142 -3 -145 -12z"/>
<path d="M5510 4281 c-5 -20 -25 -119 -45 -221 -45 -239 -173 -867 -204 -1000
-6 -25 -11 -57 -11 -72 l0 -28 139 0 139 0 10 43 c6 23 43 200 82 392 93 458
103 505 111 505 4 0 10 -17 14 -37 7 -36 153 -479 253 -763 l47 -135 177 -3
176 -2 12 52 c6 29 31 154 56 278 25 124 53 263 64 310 11 47 35 164 55 260
33 160 78 372 90 428 l5 22 -145 0 c-142 0 -145 0 -150 -22 -14 -60 -118 -562
-147 -710 -18 -93 -36 -168 -40 -168 -5 0 -8 7 -8 15 0 8 -57 180 -126 383
-69 202 -135 396 -147 432 -11 36 -26 68 -31 73 -6 4 -91 7 -188 6 l-178 -1
-10 -37z"/>
<path d="M8827 4223 c-3 -5 -15 -68 -28 -140 l-24 -133 -67 0 -67 0 -6 -47
c-4 -27 -13 -77 -20 -113 -8 -35 -11 -68 -9 -72 3 -4 32 -8 65 -8 53 0 60 -2
55 -17 -24 -76 -106 -482 -106 -523 0 -90 77 -183 175 -210 45 -13 258 -10
272 4 7 6 55 207 51 212 -2 1 -19 -1 -38 -5 -54 -11 -111 3 -138 35 -22 25
-24 35 -19 83 5 45 51 270 82 398 5 21 11 22 118 25 l112 3 28 109 c15 63 23
114 18 119 -4 4 -56 7 -115 5 -69 -2 -106 1 -106 7 0 6 11 69 25 140 14 72 25
131 25 133 0 6 -279 1 -283 -5z"/>
<path d="M2324 4183 c-3 -21 -15 -80 -25 -132 -11 -51 -19 -95 -19 -97 0 -2
-26 -4 -57 -4 -32 0 -63 -4 -70 -8 -10 -6 -43 -172 -43 -217 0 -12 13 -15 60
-15 33 0 60 -4 60 -9 0 -5 -21 -110 -47 -233 -60 -286 -62 -320 -29 -390 14
-30 38 -63 53 -74 75 -54 183 -73 303 -52 l74 13 18 75 c9 41 17 86 18 100 0
24 -2 25 -71 25 -65 0 -73 2 -95 28 -30 35 -31 72 -3 197 22 102 48 235 56
288 l5 32 114 0 c110 0 114 1 119 23 35 154 45 200 42 203 -1 2 -54 4 -116 5
l-112 2 6 51 c4 28 15 85 26 128 10 42 19 81 19 87 0 7 -46 11 -140 11 l-139
0 -7 -37z"/>
<path d="M4725 3960 c-165 -33 -319 -154 -397 -312 -56 -113 -72 -185 -73
-323 0 -112 2 -124 28 -177 35 -72 107 -138 184 -168 73 -28 227 -38 331 -20
91 15 211 73 278 134 48 43 114 131 114 152 0 5 -64 9 -145 9 -134 -1 -146 -2
-167 -22 -13 -12 -49 -34 -81 -49 -46 -21 -67 -25 -99 -20 -94 15 -163 80
-170 161 l-3 40 335 5 c184 3 340 8 346 12 19 12 37 174 31 261 -7 88 -40 173
-85 220 -79 84 -272 128 -427 97z m178 -231 c60 -31 95 -98 81 -154 l-6 -25
-199 0 c-226 0 -224 -1 -171 78 29 43 58 69 107 95 35 19 155 23 188 6z"/>
<path d="M7082 3950 c-291 -78 -481 -361 -459 -680 9 -130 72 -222 194 -282
58 -28 74 -32 186 -36 75 -3 144 0 177 7 129 28 282 133 340 235 17 28 30 54
30 59 0 4 -63 5 -141 2 -133 -4 -142 -6 -171 -30 -47 -39 -85 -56 -142 -62
-105 -11 -191 56 -203 156 l-6 51 219 0 c253 1 455 9 467 20 4 4 15 45 23 91
55 301 -68 473 -346 485 -73 3 -112 0 -168 -16z m182 -220 c60 -22 104 -99 90
-156 l-6 -24 -198 0 c-110 0 -201 4 -204 8 -9 15 35 91 72 123 19 17 49 37 66
45 36 15 144 18 180 4z"/>
<path d="M8115 3964 c-11 -2 -45 -9 -75 -15 -213 -42 -376 -278 -300 -434 36
-73 99 -105 328 -166 105 -27 147 -59 138 -103 -13 -64 -81 -106 -173 -106
-73 0 -110 21 -135 76 l-19 45 -118 -2 c-65 0 -124 -5 -131 -9 -18 -11 -7
-107 19 -158 30 -59 95 -109 171 -133 81 -25 245 -27 335 -4 183 47 314 175
332 324 11 91 -3 138 -56 191 -53 53 -105 76 -275 120 -149 40 -177 70 -118
129 54 55 177 49 229 -10 l27 -30 115 3 116 3 0 50 c-1 99 -72 179 -186 209
-60 15 -192 27 -224 20z"/>
<path d="M2848 3943 c-16 -2 -28 -10 -28 -17 0 -7 13 -67 29 -132 36 -149 56
-236 127 -547 l56 -248 -46 -70 c-59 -88 -106 -120 -189 -128 l-62 -6 -17 -80
c-9 -44 -17 -93 -17 -109 l-1 -29 113 5 c121 5 172 21 242 74 70 53 187 237
496 774 67 118 160 280 206 359 46 79 83 145 83 147 0 2 -62 4 -138 4 l-137 0
-83 -162 c-142 -278 -264 -498 -273 -492 -5 3 -9 17 -9 32 0 15 -12 104 -26
197 -14 94 -33 224 -43 291 -10 66 -21 125 -24 131 -7 11 -202 15 -259 6z"/>
<path d="M4065 2366 c-76 -35 -127 -124 -127 -221 1 -127 69 -210 186 -228
174 -27 305 181 221 350 -38 75 -89 107 -179 111 -45 1 -82 -3 -101 -12z m153
-80 c61 -34 82 -138 43 -215 -26 -50 -60 -71 -116 -71 -38 0 -52 5 -75 28 -53
53 -61 143 -19 211 32 53 115 76 167 47z"/>
<path d="M6658 2225 l-3 -157 -105 146 -104 146 -48 0 -48 0 -1 -77 c0 -43 -2
-141 -2 -218 l-2 -140 34 -3 c18 -2 37 0 41 5 5 4 5 79 2 166 -4 86 -5 157 -2
156 3 0 25 -30 49 -67 24 -37 73 -109 110 -159 65 -92 66 -93 108 -93 23 0 44
4 47 8 3 5 6 105 7 223 l1 214 -41 3 -40 3 -3 -156z"/>
<path d="M2861 2349 c-169 -87 -148 -382 32 -427 74 -19 167 10 201 63 22 33
16 50 -19 59 -21 5 -32 1 -49 -17 -48 -52 -137 -39 -176 25 -41 67 -18 181 44
219 51 31 99 25 140 -17 34 -35 37 -36 66 -24 35 14 34 13 15 50 -42 81 -165
114 -254 69z"/>
<path d="M4596 2354 c-3 -8 -3 -26 0 -40 6 -23 10 -24 80 -24 l74 0 0 -185 0
-185 40 0 40 0 0 185 0 184 78 3 77 3 3 38 3 37 -194 0 c-168 0 -196 -2 -201
-16z"/>
<path d="M5260 2150 l0 -220 41 0 41 0 -7 100 -8 100 117 0 117 0 -6 -62 c-3
-35 -8 -79 -10 -99 -4 -27 -1 -38 11 -43 22 -8 74 -7 74 2 0 4 1 102 1 217 l1
210 -42 3 -43 3 7 -78 7 -78 -114 3 -114 3 5 80 5 79 -42 0 -41 0 0 -220z"/>
<path d="M7181 2358 c-95 -17 -161 -106 -161 -215 0 -74 15 -115 60 -166 62
-71 185 -84 270 -29 50 33 73 79 78 160 l4 62 -90 0 -90 0 -5 -27 c-8 -40 6
-51 58 -45 51 5 58 -8 28 -58 -46 -78 -164 -65 -209 23 -21 39 -22 113 -3 152
18 37 73 75 111 75 33 0 89 -26 101 -46 11 -20 41 -17 68 5 l24 19 -20 22
c-52 58 -139 84 -224 68z"/>
<path d="M3440 2141 l0 -221 134 0 134 0 5 33 c3 17 1 36 -3 41 -5 5 -50 8
-101 7 l-91 -2 3 178 4 178 -42 3 -43 3 0 -220z"/>
<path d="M5957 2353 c-2 -5 -3 -102 -3 -218 l1 -210 40 0 40 0 0 217 0 218
-37 0 c-20 0 -39 -3 -41 -7z"/>
</g>
</svg>
